<svg width="177" height="29" viewBox="0 0 177 29" fill="none" xmlns="http://www.w3.org/2000/svg">
<path d="M170.056 27.3941C169.468 27.3941 169.027 27.3715 168.733 27.3263C168.44 27.2811 168.157 27.2246 167.886 27.1568C167.637 27.089 167.298 27.0325 166.869 26.9873C166.439 26.9421 165.784 26.9195 164.903 26.9195L164.089 20.5466H164.53C164.891 22.6709 165.569 24.2755 166.564 25.3602C167.558 26.4223 168.643 26.9534 169.818 26.9534C170.971 26.9534 171.841 26.7161 172.429 26.2416C173.039 25.767 173.344 25.1229 173.344 24.3094C173.344 23.7896 173.209 23.3376 172.937 22.9534C172.689 22.5466 172.248 22.1399 171.615 21.7331C170.982 21.3037 170.123 20.7952 169.039 20.2077L168.055 19.6653C166.812 18.9647 165.886 18.1512 165.275 17.2246C164.688 16.2755 164.394 15.2585 164.394 14.1738C164.394 12.637 164.948 11.428 166.055 10.5466C167.185 9.66529 168.688 9.22461 170.564 9.22461C171.039 9.22461 171.423 9.24721 171.717 9.29241C172.011 9.3376 172.293 9.3941 172.564 9.4619C172.836 9.52969 173.175 9.58619 173.581 9.63139C173.988 9.67659 174.531 9.69919 175.209 9.69919L175.683 15.1568H175.277C175.141 14.0947 174.836 13.1568 174.361 12.3433C173.909 11.5071 173.367 10.863 172.734 10.411C172.101 9.93647 171.457 9.69919 170.802 9.69919C169.943 9.69919 169.253 9.92517 168.733 10.3772C168.236 10.8291 167.988 11.4619 167.988 12.2755C167.988 12.8856 168.18 13.4506 168.564 13.9704C168.971 14.4675 169.739 15.0099 170.869 15.5975L171.886 16.106C173.468 16.9195 174.621 17.767 175.344 18.6483C176.068 19.5297 176.429 20.6596 176.429 22.0382C176.429 25.5636 174.305 27.3489 170.056 27.3941Z" fill="#000D25"/>
<path d="M154.547 27.3263C152.987 27.3263 151.597 26.9421 150.377 26.1738C149.179 25.4054 148.241 24.3433 147.563 22.9873C146.885 21.6088 146.546 20.0382 146.546 18.2755C146.546 16.4675 146.919 14.8856 147.665 13.5297C148.411 12.1738 149.428 11.1229 150.716 10.3772C152.027 9.60879 153.507 9.22461 155.157 9.22461C156.536 9.22461 157.756 9.4958 158.819 10.0382C159.903 10.5805 160.762 11.3489 161.395 12.3433C162.051 13.315 162.423 14.4449 162.514 15.7331L162.548 16.2416H151.157V16.4111C151.157 18.8065 151.688 20.7274 152.75 22.1738C153.812 23.5975 155.236 24.3094 157.022 24.3094C158.107 24.3094 159.135 24.0495 160.107 23.5297C161.101 22.9873 161.904 22.2642 162.514 21.3602L162.819 21.4619C162.435 22.6144 161.836 23.6314 161.022 24.5127C160.208 25.3941 159.248 26.0834 158.14 26.5805C157.033 27.0777 155.835 27.3263 154.547 27.3263ZM151.191 15.7331H158.073C158.073 13.9478 157.779 12.5014 157.191 11.3941C156.626 10.2868 155.824 9.73308 154.784 9.73308C153.79 9.73308 152.965 10.2755 152.309 11.3602C151.654 12.4449 151.281 13.9026 151.191 15.7331Z" fill="#000D25"/>
<path d="M126.424 26.9189V26.5799H126.458C127.271 26.5799 127.927 26.3313 128.424 25.8342C128.921 25.337 129.17 24.6816 129.17 23.868V4.54601C129.17 3.73246 128.91 3.07709 128.39 2.57991C127.893 2.08274 127.237 1.83415 126.424 1.83415V1.49517H129.882C131.035 1.49517 131.916 1.37087 132.526 1.12229C133.091 0.873699 133.487 0.568614 133.713 0.207031H134.052V18.0375L139.815 13.1901C140.742 12.4217 141.296 11.7325 141.476 11.1223C141.612 10.5573 141.465 10.2296 141.036 10.1392L140.595 10.0375V9.69856H145.646V10.0375L145.307 10.1053C144.765 10.1957 144.2 10.4217 143.612 10.7833C143.047 11.1449 142.222 11.7777 141.137 12.6816L138.798 14.6477L145.545 25.0206C145.974 25.5856 146.347 25.9923 146.663 26.2409C146.98 26.4669 147.33 26.5799 147.714 26.5799V26.9189H138.764V26.5799C139.329 26.5799 139.702 26.5347 139.883 26.4443C140.086 26.3765 140.188 26.2296 140.188 26.0036C140.188 25.8003 140.109 25.5404 139.951 25.224C139.86 25.0432 139.747 24.8398 139.612 24.6138C139.499 24.3652 139.352 24.094 139.171 23.8003L135.306 17.5969L134.052 18.6816V23.868C134.052 24.6816 134.3 25.337 134.798 25.8342C135.295 26.3313 135.95 26.5799 136.764 26.5799H136.798V26.9189H126.424Z" fill="#000D25"/>
<path d="M116.597 26.9196V26.5806H116.631C117.444 26.5806 118.1 26.3321 118.597 25.8349C119.094 25.3377 119.343 24.6823 119.343 23.8688V12.7501C119.343 11.8914 119.162 11.2247 118.8 10.7501C118.461 10.2756 117.727 10.0383 116.597 10.0383V9.69929H120.055C121.207 9.69929 122.089 9.57499 122.699 9.3264C123.264 9.07782 123.66 8.77273 123.886 8.41115H124.225V23.8688C124.225 24.6823 124.473 25.3377 124.971 25.8349C125.468 26.3321 126.123 26.5806 126.937 26.5806H126.971V26.9196H116.597ZM121.75 6.27556C120.936 6.27556 120.258 6.01567 119.716 5.4959C119.196 4.95352 118.936 4.27556 118.936 3.462C118.936 2.64844 119.196 1.98177 119.716 1.462C120.258 0.919624 120.936 0.648438 121.75 0.648438C122.541 0.648438 123.196 0.919624 123.716 1.462C124.259 2.00437 124.53 2.67104 124.53 3.462C124.53 4.25296 124.259 4.91962 123.716 5.462C123.196 6.00437 122.541 6.27556 121.75 6.27556Z" fill="#000D25"/>
<path d="M94.8389 26.9198V26.5808H94.8728C95.6638 26.5808 96.308 26.3549 96.8052 25.9029C97.325 25.4283 97.5849 24.8181 97.5849 24.0724V4.34355C97.5397 3.57519 97.2685 2.96502 96.7713 2.51304C96.2967 2.06107 95.6638 1.83508 94.8728 1.83508H94.8389V1.49609H104.908C106.739 1.49609 108.321 1.73338 109.654 2.20796C111.01 2.68254 112.061 3.3492 112.807 4.20796C113.553 5.04412 113.926 6.03847 113.926 7.19101C113.926 8.50174 113.361 9.63169 112.231 10.5808C111.123 11.53 109.665 12.1176 107.857 12.3436C109.53 12.4339 110.988 12.7729 112.231 13.3605C113.496 13.9255 114.48 14.6938 115.18 15.6656C115.903 16.6373 116.265 17.7673 116.265 19.0554C116.265 20.5921 115.813 21.9594 114.909 23.1571C114.027 24.3323 112.773 25.2588 111.146 25.9368C109.519 26.5921 107.597 26.9198 105.382 26.9198H94.8389ZM102.806 12.1063H104.908C106.06 12.1063 106.987 11.6543 107.688 10.7503C108.411 9.82378 108.773 8.59214 108.773 7.05542C108.773 5.49609 108.411 4.25316 107.688 3.3266C106.987 2.40005 106.06 1.93677 104.908 1.93677H102.806V12.1063ZM105.382 26.4791C107.055 26.4791 108.377 25.8464 109.349 24.5808C110.343 23.3153 110.841 21.6091 110.841 19.4622C110.841 17.4057 110.298 15.756 109.213 14.513C108.151 13.2475 106.716 12.6147 104.908 12.6147H102.806V24.0724C102.806 25.6769 103.665 26.4791 105.382 26.4791Z" fill="#000D25"/>
<path d="M62.0342 26.9195V26.5805H62.0681C62.8817 26.5805 63.5372 26.3319 64.0344 25.8347C64.5316 25.3376 64.7803 24.6822 64.7803 23.8686V12.75C64.7803 11.8912 64.5994 11.2246 64.2378 10.75C63.8988 10.2754 63.1643 10.0381 62.0342 10.0381V9.69915H65.3905C66.3172 9.69915 67.0291 9.65395 67.5263 9.56356C68.0462 9.47316 68.4304 9.36017 68.679 9.22458C68.9276 9.06638 69.1084 8.90819 69.2214 8.75H69.5605L69.5944 13.1568C70.182 11.9816 71.0748 11.0325 72.2726 10.3093C73.4705 9.58616 74.7362 9.22458 76.0697 9.22458C77.358 9.22458 78.4315 9.58616 79.2904 10.3093C80.1492 11.0325 80.703 12.0042 80.9516 13.2246C81.5844 12.0042 82.4885 11.0325 83.6638 10.3093C84.8616 9.58616 86.1499 9.22458 87.5286 9.22458C89.0429 9.22458 90.2521 9.72175 91.1562 10.7161C92.0828 11.7105 92.5461 13.0212 92.5461 14.6483V23.8686C92.5461 24.6822 92.7948 25.3376 93.292 25.8347C93.7892 26.3319 94.4447 26.5805 95.2583 26.5805H95.2922V26.9195H84.9521V26.5805H84.986C85.7996 26.5805 86.455 26.3319 86.9523 25.8347C87.4495 25.3376 87.6981 24.6822 87.6981 23.8686V14.3093C87.6981 13.1794 87.4721 12.2754 87.0201 11.5975C86.5681 10.9195 85.9804 10.5805 85.2572 10.5805C84.5565 10.5805 83.822 10.8969 83.0535 11.5297C82.2851 12.1398 81.6183 12.9421 81.0533 13.9364C81.0759 13.9816 81.0872 14.0381 81.0872 14.1059C81.0872 14.1737 81.0872 14.2302 81.0872 14.2754V23.8686C81.0872 24.6822 81.3358 25.3376 81.833 25.8347C82.3303 26.3319 82.9857 26.5805 83.7994 26.5805H83.8333V26.9195H73.4931V26.5805H73.527C74.3407 26.5805 74.9961 26.3319 75.4933 25.8347C75.9906 25.3376 76.2392 24.6822 76.2392 23.8686V14.3093C76.2392 13.1794 76.0132 12.2754 75.5612 11.5975C75.1317 10.9195 74.5554 10.5805 73.8321 10.5805C73.1315 10.5805 72.3969 10.8856 71.6285 11.4958C70.8826 12.0833 70.2272 12.8856 69.6622 13.9025V23.8686C69.6622 24.6822 69.9108 25.3376 70.408 25.8347C70.9052 26.3319 71.5607 26.5805 72.3743 26.5805H72.4082V26.9195H62.0342Z" fill="#000D25"/>
<path d="M49.1168 27.3948C47.7381 27.3948 46.6307 27.0219 45.7944 26.2762C44.9582 25.5304 44.54 24.5473 44.54 23.327C44.54 22.8072 44.6304 22.3213 44.8113 21.8694C44.9921 21.3948 45.3311 20.9315 45.8283 20.4795C46.3482 20.0276 47.0601 19.5643 47.9642 19.0897C48.8682 18.5925 50.0661 18.0728 51.5578 17.5304L54.7107 16.3778V13.8355C54.7107 12.5473 54.5073 11.5304 54.1005 10.7846C53.6936 10.0163 53.1286 9.63208 52.4053 9.63208C51.5465 9.65468 50.8119 10.2197 50.2017 11.327C49.6141 12.4343 49.2185 13.9711 49.0151 15.9372L45.3537 13.8355C45.7379 12.9089 46.3256 12.0954 47.1166 11.3948C47.9077 10.6942 48.8117 10.1519 49.8288 9.76768C50.8684 9.3835 51.9533 9.19141 53.0834 9.19141C55.0045 9.19141 56.564 9.73378 57.7619 10.8185C58.9824 11.8807 59.5926 13.3383 59.5926 15.1914V23.3609C59.5926 24.6716 60.0333 25.327 60.9148 25.327C61.4346 25.327 61.9432 25.0445 62.4404 24.4795L62.7116 24.7168C62.124 25.5078 61.412 26.1519 60.5758 26.649C59.7395 27.1462 58.9259 27.3948 58.1348 27.3948C57.276 27.3948 56.5301 27.101 55.8973 26.5134C55.287 25.9259 54.9028 25.1462 54.7446 24.1745C53.6371 25.3044 52.6653 26.1293 51.829 26.649C51.0154 27.1462 50.1113 27.3948 49.1168 27.3948ZM51.6595 25.2931C52.1567 25.2931 52.6314 25.1688 53.0834 24.9202C53.558 24.6716 54.0892 24.2649 54.6768 23.6999L54.7107 16.8185L53.3546 17.327C52.2019 17.7564 51.3205 18.1971 50.7102 18.649C50.1 19.0784 49.6706 19.5643 49.422 20.1067C49.1959 20.649 49.0829 21.2705 49.0829 21.9711C49.0829 22.9428 49.3202 23.7451 49.7949 24.3778C50.2921 24.988 50.9136 25.2931 51.6595 25.2931Z" fill="#000D25"/>
<path d="M36.8887 28.207L36.8548 23.3935C36.3123 24.5686 35.4987 25.5404 34.4138 26.3087C33.3289 27.0545 32.165 27.4274 30.9219 27.4274C29.7014 27.4274 28.6052 27.0432 27.6334 26.2748C26.6615 25.5065 25.8931 24.4556 25.328 23.1223C24.763 21.7664 24.4805 20.2409 24.4805 18.546C24.4805 16.6477 24.8308 14.998 25.5314 13.5969C26.2547 12.1957 27.2491 11.1223 28.5148 10.3765C29.7805 9.60816 31.2383 9.22398 32.8882 9.22398C33.8149 9.22398 34.572 9.37087 35.1597 9.66466C35.7473 9.93585 36.2784 10.4104 36.7531 11.0884V4.54601C36.7531 3.73246 36.4931 3.07709 35.9733 2.57991C35.4761 2.08274 34.8206 1.83415 34.007 1.83415V1.49517H37.465C38.5951 1.49517 39.4539 1.38217 40.0416 1.15618C40.6292 0.930195 41.0473 0.613811 41.2959 0.207031H41.635V23.868C41.635 24.6816 41.8836 25.337 42.3808 25.8342C42.8781 26.3313 43.5448 26.5799 44.381 26.5799V26.9189H40.923C39.9286 26.9189 39.1375 27.0206 38.5499 27.224C37.9848 27.4274 37.5441 27.7551 37.2277 28.207H36.8887ZM32.7865 26.0714C33.3063 26.0714 33.8262 25.9132 34.346 25.5969C34.8884 25.2579 35.3744 24.8172 35.8038 24.2748C36.2332 23.7325 36.5496 23.1562 36.7531 22.546V14.2748C36.64 12.9189 36.301 11.8341 35.736 11.0206C35.1936 10.207 34.4816 9.80025 33.6002 9.80025C32.4249 9.80025 31.5095 10.546 30.8541 12.0375C30.2212 13.5291 29.9048 15.7325 29.9048 18.6477C29.9048 23.5969 30.8654 26.0714 32.7865 26.0714Z" fill="#000D25"/>
<path d="M0.429688 26.9205V26.5815C0.859115 26.5363 1.28854 26.3329 1.71797 25.9713C2.17 25.5872 2.58813 25.1126 2.97235 24.5476C3.35658 23.9826 3.65039 23.429 3.85381 22.8866L12.804 0.988281H13.1091L21.9237 22.8866C22.9181 25.3499 24.0256 26.5815 25.2461 26.5815H25.3478V26.9205H14.4991V26.5815H14.6347C15.6518 26.5815 16.3298 26.2764 16.6688 25.6662C17.0305 25.0335 16.9853 24.1634 16.5332 23.0561L14.4991 18.0052H6.32867L4.43014 22.7171C4.02332 23.6888 4.06852 24.5702 4.56575 25.3612C5.08559 26.1295 5.91054 26.5363 7.04061 26.5815V26.9205H0.429688ZM6.49818 17.5646H14.3296L10.4647 7.80184L6.49818 17.5646Z" fill="#000D25"/>
</svg>
