<svg width="129" height="33" viewBox="0 0 129 33" fill="none" xmlns="http://www.w3.org/2000/svg">
<path d="M117.713 15.3102H121.239C121.287 16.1563 121.915 16.6639 123.051 16.6639C124.21 16.6639 124.741 16.253 124.741 15.6245C124.741 15.2619 124.548 14.8751 123.654 14.6817L121.432 14.1983C119.21 13.7148 118.123 12.7479 118.123 10.6206C118.123 8.10664 120.273 6.65625 123.171 6.65625C125.973 6.65625 127.929 8.30002 127.929 10.7415H124.403C124.403 9.91962 123.896 9.36364 123.002 9.36364C122.157 9.36364 121.626 9.79875 121.626 10.4514C121.626 11.0074 122.084 11.3217 122.93 11.515L125.176 11.9985C127.157 12.4336 128.243 13.3522 128.243 15.286C128.243 17.8726 126.046 19.4438 122.906 19.4438C119.718 19.4438 117.713 17.7517 117.713 15.3102Z" fill="#D8031C"/>
<path d="M110.291 19.4438C106.644 19.4438 104.035 16.7848 104.035 13.0621C104.035 9.29112 106.571 6.65625 110.218 6.65625C114.01 6.65625 116.377 9.14608 116.377 13.0863V14.029L107.61 14.0774C107.827 15.6728 108.721 16.4222 110.363 16.4222C111.764 16.4222 112.754 15.9145 113.02 15.0443H116.425C115.991 17.7275 113.6 19.4438 110.291 19.4438ZM110.242 9.67789C108.769 9.67789 107.948 10.3306 107.658 11.7809H112.682C112.682 10.4998 111.74 9.67789 110.242 9.67789Z" fill="#D8031C"/>
<path d="M95.2 19.1308H91.4805V0.904297H95.2V11.3954L99.1127 7.04426H103.774L99.2334 11.8305L103.629 19.1308H99.33L96.625 14.6104L95.2 16.1092V19.1308Z" fill="#D8031C"/>
<path d="M86.8032 5.15803C85.6197 5.15803 84.6777 4.21527 84.6777 3.03079C84.6777 1.84631 85.6197 0.927734 86.8032 0.927734C87.9625 0.927734 88.9044 1.84631 88.9044 3.03079C88.9044 4.21527 87.9625 5.15803 86.8032 5.15803ZM84.9676 19.1301V7.04353H88.687V19.1301H84.9676Z" fill="#D8031C"/>
<path d="M69.3672 19.1303V1.24219H76.8062C80.4049 1.24219 82.5786 3.12769 82.5786 6.19767C82.5786 8.10735 81.7091 9.50938 80.0909 10.2104C81.854 10.7906 82.796 12.1684 82.796 14.199C82.796 17.3656 80.6706 19.1303 76.8062 19.1303H69.3672ZM76.3956 4.67477H73.2799V8.56664H76.3956C77.7964 8.56664 78.5693 7.86562 78.5693 6.58444C78.5693 5.32744 77.8206 4.67477 76.3956 4.67477ZM76.5888 11.8542H73.2799V15.6977H76.5888C78.038 15.6977 78.7867 15.045 78.7867 13.7155C78.7867 12.5069 78.0138 11.8542 76.5888 11.8542Z" fill="#D8031C"/>
<path d="M50.5974 19.1296H46.8779V7.04302H50.3559L50.5974 8.30002C51.2012 7.45396 52.3847 6.65625 54.1237 6.65625C55.9351 6.65625 57.0945 7.50231 57.7949 8.78348C58.4228 7.50231 59.8479 6.65625 61.5868 6.65625C64.7025 6.65625 66.2483 8.46923 66.2483 11.225V19.1296H62.5288V12.2644C62.5288 10.7415 61.7317 10.0163 60.5483 10.0163C59.4856 10.0163 58.4228 10.5965 58.4228 12.6512V19.1296H54.7034V12.2644C54.7034 10.7657 53.9305 10.0405 52.747 10.0405C51.6843 10.0405 50.5974 10.6206 50.5974 12.6512V19.1296Z" fill="#01016F"/>
<path d="M36.8915 19.4438C34.3314 19.4438 32.7373 17.9451 32.7373 15.5761C32.7373 13.3522 34.3072 11.9743 37.2055 11.7568L40.5869 11.4909V11.2975C40.5869 10.113 39.8623 9.4845 38.5339 9.4845C36.964 9.4845 36.1187 10.0888 36.1187 11.1766H33.0271C33.0271 8.44506 35.2733 6.65625 38.7271 6.65625C42.2293 6.65625 44.2098 8.61427 44.2098 12.071V19.1296H40.925L40.6835 17.5341C40.297 18.6461 38.703 19.4438 36.8915 19.4438ZM38.1958 16.6881C39.6208 16.6881 40.611 15.9871 40.611 14.6092V13.9565L38.7271 14.1257C37.1089 14.2708 36.5293 14.6334 36.5293 15.4069C36.5293 16.2771 37.0606 16.6881 38.1958 16.6881Z" fill="#01016F"/>
<path d="M22.8677 19.4451C19.3897 19.4451 17.1436 16.9794 17.1436 13.1601C17.1436 9.31654 19.438 6.65749 23.1092 6.65749C24.6067 6.65749 26.0317 7.26182 26.7321 8.15623V0.904297H30.4516V19.1308H26.9495L26.7563 17.5837C26.1041 18.6957 24.6067 19.4451 22.8677 19.4451ZM23.7614 16.0367C25.5003 16.0367 26.708 14.828 26.708 13.015C26.708 11.202 25.5003 9.99338 23.7614 9.99338C21.9982 9.99338 20.8872 11.2262 20.8872 13.015C20.8872 14.8038 21.9982 16.0367 23.7614 16.0367Z" fill="#01016F"/>
<path d="M4.32494 19.1303H0.243164L6.61943 1.24219H10.4355L16.7877 19.1303H12.6334L11.3775 15.3593H5.60503L4.32494 19.1303ZM8.02028 8.25239L6.7402 12.0717H10.2665L8.98638 8.25239C8.79316 7.64806 8.57579 6.94704 8.50333 6.51192C8.43088 6.92287 8.23766 7.59971 8.02028 8.25239Z" fill="#01016F"/>
<path d="M120.111 27.114C120.111 25.5186 121.138 24.2012 122.853 24.2012C123.867 24.2012 124.64 24.6725 125.014 25.5307L125.099 24.3583H125.823V30.0269C125.823 31.7674 124.712 32.9035 122.998 32.9035C121.5 32.9035 120.449 32.0574 120.22 30.6433H121.053C121.234 31.5861 121.959 32.142 123.01 32.142C124.205 32.142 125.002 31.3322 125.002 30.1115V28.7215C124.604 29.5434 123.795 30.0269 122.792 30.0269C121.126 30.0269 120.111 28.7095 120.111 27.114ZM120.945 27.1019C120.945 28.2985 121.681 29.2775 122.913 29.2775C124.181 29.2775 124.93 28.3589 124.93 27.1019C124.93 25.857 124.205 24.9385 122.925 24.9385C121.669 24.9385 120.945 25.9175 120.945 27.1019Z" fill="black"/>
<path d="M111.423 30.2082H110.59V24.3583H111.314L111.435 25.3736C111.822 24.6242 112.595 24.2012 113.44 24.2012C115.046 24.2012 115.71 25.156 115.71 26.6306V30.2082H114.877V26.8119C114.877 25.4461 114.261 24.9626 113.295 24.9626C112.099 24.9626 111.423 25.8329 111.423 27.1503V30.2082Z" fill="black"/>
<path d="M105.287 22.7527C104.949 22.7527 104.671 22.4747 104.671 22.1363C104.671 21.7979 104.949 21.5078 105.287 21.5078C105.625 21.5078 105.915 21.7979 105.915 22.1363C105.915 22.4747 105.625 22.7527 105.287 22.7527ZM104.876 30.2101V24.3602H105.709V30.2101H104.876Z" fill="black"/>
<path d="M99.9651 30.2095H99.1318V21.3984H99.9651V30.2095Z" fill="black"/>
<path d="M89.2715 27.2953C89.2715 25.4582 90.3946 24.2012 92.0973 24.2012C93.4499 24.2012 94.4401 24.9868 94.6696 26.1955H93.8363C93.6189 25.3857 92.9185 24.9385 92.1094 24.9385C90.9259 24.9385 90.0927 25.8449 90.0927 27.2832C90.0927 28.6732 90.8656 29.6039 92.049 29.6039C92.9185 29.6039 93.6189 29.1204 93.8484 28.371H94.6937C94.416 29.5676 93.3774 30.3532 92.049 30.3532C90.3946 30.3532 89.2715 29.1325 89.2715 27.2953Z" fill="black"/>
<path d="M80.465 32.7595V32.0706H81.105C81.6122 32.0706 82.1194 32.0343 82.4092 31.2487L82.6628 30.5598L80.2959 24.3594H81.1775L83.0614 29.4599L84.909 24.3594H85.7664L83.0855 31.5509C82.7474 32.4694 82.1798 32.8441 81.3465 32.8441C80.9963 32.8441 80.7306 32.82 80.465 32.7595Z" fill="black"/>
<path d="M71.3535 27.2953C71.3535 25.4582 72.4766 24.2012 74.1794 24.2012C75.5319 24.2012 76.5222 24.9868 76.7516 26.1955H75.9183C75.701 25.3857 75.0005 24.9385 74.1914 24.9385C73.008 24.9385 72.1747 25.8449 72.1747 27.2832C72.1747 28.6732 72.9476 29.6039 74.1311 29.6039C75.0006 29.6039 75.701 29.1204 75.9304 28.371H76.7758C76.498 29.5676 75.4594 30.3532 74.1311 30.3532C72.4766 30.3532 71.3535 29.1325 71.3535 27.2953Z" fill="black"/>
<path d="M55.4502 27.2953C55.4502 25.4582 56.5733 24.2012 58.276 24.2012C59.6286 24.2012 60.6188 24.9868 60.8483 26.1955H60.015C59.7977 25.3857 59.0972 24.9385 58.2881 24.9385C57.1046 24.9385 56.2714 25.8449 56.2714 27.2832C56.2714 28.6732 57.0443 29.6039 58.2277 29.6039C59.0972 29.6039 59.7977 29.1204 60.0271 28.371H60.8724C60.5947 29.5676 59.5561 30.3532 58.2277 30.3532C56.5733 30.3532 55.4502 29.1325 55.4502 27.2953Z" fill="black"/>
<path d="M50.5602 22.7527C50.2221 22.7527 49.9443 22.4747 49.9443 22.1363C49.9443 21.7979 50.2221 21.5078 50.5602 21.5078C50.8984 21.5078 51.1882 21.7979 51.1882 22.1363C51.1882 22.4747 50.8984 22.7527 50.5602 22.7527ZM50.1496 30.2101V24.3602H50.9829V30.2101H50.1496Z" fill="black"/>
<path d="M45.902 24.2889V25.0383H45.4431C44.3683 25.0383 43.6799 25.7635 43.6799 26.8755V30.2114H42.8467V24.3615H43.6316L43.692 25.268C43.9215 24.6395 44.5374 24.2285 45.3585 24.2285C45.5397 24.2285 45.6967 24.2406 45.902 24.2889Z" fill="black"/>
<path d="M37.4506 30.2089H36.6294V25.06H35.458V24.359H36.6294V22.5098H37.4506V24.359H38.622V25.06H37.4506V30.2089Z" fill="black"/>
<path d="M26.2852 27.2953C26.2852 25.4582 27.4082 24.2012 29.111 24.2012C30.4635 24.2012 31.4538 24.9868 31.6832 26.1955H30.85C30.6326 25.3857 29.9322 24.9385 29.1231 24.9385C27.9396 24.9385 27.1063 25.8449 27.1063 27.2832C27.1063 28.6732 27.8792 29.6039 29.0627 29.6039C29.9322 29.6039 30.6326 29.1204 30.8621 28.371H31.7074C31.4296 29.5676 30.3911 30.3532 29.0627 30.3532C27.4082 30.3532 26.2852 29.1325 26.2852 27.2953Z" fill="black"/>
<path d="M19.6277 30.3532C17.9129 30.3532 16.7656 29.1204 16.7656 27.2832C16.7656 25.4582 17.9008 24.2012 19.5673 24.2012C21.1493 24.2012 22.2241 25.3252 22.2241 26.9811V27.392H17.5747C17.6351 28.8182 18.3838 29.6401 19.6398 29.6401C20.5938 29.6401 21.2097 29.2292 21.4271 28.4556H22.2241C21.9101 29.6885 21.0044 30.3532 19.6277 30.3532ZM19.5673 24.9143C18.4684 24.9143 17.7438 25.6395 17.5989 26.7877H21.3908C21.3908 25.6636 20.6663 24.9143 19.5673 24.9143Z" fill="black"/>
<path d="M12.261 30.2095H11.4277V21.3984H12.261V30.2095Z" fill="black"/>
<path d="M4.32594 30.3532C2.61111 30.3532 1.46387 29.1204 1.46387 27.2832C1.46387 25.4582 2.59904 24.2012 4.26556 24.2012C5.84755 24.2012 6.92234 25.3252 6.92234 26.9811V27.392H2.27298C2.33336 28.8182 3.08209 29.6401 4.33802 29.6401C5.29205 29.6401 5.90794 29.2292 6.12531 28.4556H6.92234C6.60836 29.6885 5.70264 30.3532 4.32594 30.3532ZM4.26556 24.9143C3.16662 24.9143 2.44205 25.6395 2.29713 26.7877H6.08908C6.08908 25.6636 5.3645 24.9143 4.26556 24.9143Z" fill="black"/>
</svg>
