<svg width="1188" height="479" viewBox="0 0 1188 479" fill="none" xmlns="http://www.w3.org/2000/svg">
<path d="M1174.61 7.17383C1189.48 64.553 1200.63 144.878 1149.72 185.907C1140.4 192.832 1129.09 197.712 1115.53 199.857C1105.66 201.974 1089.93 202.54 1086.39 202.44C1082.85 202.336 1075.39 203.5 1072.92 207.649L997.121 339.899V394.266C997.121 435.561 996.6 439.745 990.325 453.337C983.533 467.453 964.716 478.433 946.42 478.433C928.65 478.432 909.825 467.453 903.029 453.337C896.754 439.745 896.233 435.561 896.233 394.266V339.899L817.304 211.832C802.663 187.786 799.529 179.945 799.529 165.308C799.529 139.17 819.395 119.308 845.533 119.308C867.483 119.308 880.033 129.762 896.233 161.649L944.85 255.74L983.012 178.899C998.171 149.624 1001.83 142.308 1008.63 135.512C1018.04 126.624 1028.5 121.92 1040.51 121.92C1041.61 121.92 1042.69 122.012 1043.77 122.091L1043.76 121.874C1043.76 121.874 1058.17 121.574 1075.81 121.236C1152.31 122.986 1159.75 64.5529 1174.61 7.17383ZM425.773 119.309C441.686 119.309 458.531 130.284 464.615 144.396C470.231 157.467 470.699 161.651 470.699 202.946V394.792C470.699 435.563 470.231 440.267 464.615 453.338C458.531 467.45 441.686 478.43 425.773 478.43C409.861 478.43 393.014 467.45 386.931 453.338C381.315 440.267 380.848 436.088 380.848 394.792V202.946C380.848 162.172 381.315 157.467 386.931 144.396C393.014 130.284 409.861 119.309 425.773 119.309ZM733.168 119.303C758.255 119.303 779.164 139.687 779.164 163.732C779.163 174.707 772.368 191.436 761.91 206.599L704.934 286.578L772.889 386.944C786.481 406.807 792.755 421.965 792.755 435.036C792.755 459.082 772.368 478.424 747.281 478.424C733.168 478.424 721.139 473.195 710.68 462.216C706.505 457.516 703.364 452.286 693.96 436.603L653.706 368.645L612.406 436.603C592.552 469.011 580.522 478.424 558.043 478.424C532.955 478.424 513.089 458.561 513.088 433.466C513.088 419.353 516.222 412.032 533.997 386.944L604.051 286.578L546.026 206.599C533.476 188.824 527.722 175.232 527.722 162.165C527.722 138.64 548.118 119.303 572.156 119.303C591.501 119.303 605.614 130.274 620.772 155.891L653.706 212.874L686.643 155.891C702.843 127.141 712.772 119.303 733.168 119.303ZM12.5005 0C27.3589 57.3792 34.7923 115.813 111.296 114.062C114.734 114.129 118.042 114.191 121.154 114.254H233.496C233.541 114.258 233.588 114.266 233.638 114.271C237.33 114.537 240.934 114.938 244.467 115.43C291.975 122.067 324.762 148.817 333.604 187.992C335.175 194.959 336.076 202.271 336.076 209.983C336.076 241.867 321.954 264.867 294.254 278.979L286.409 282.642C328.75 296.754 349.666 323.413 349.667 365.233C349.667 424.633 305.746 463.376 233.638 469.442V469.454H127.683C97.8755 469.454 94.4418 469.055 84.8921 464.271C74.5672 459.08 66.5455 444.713 66.5455 431.15C66.5455 417.584 74.5671 403.221 84.8921 398.033C94.4418 393.246 97.4964 392.846 127.683 392.846C127.683 392.846 235.951 392.992 237.104 392.529C245.171 392.117 248.042 391.083 253.104 388.546C261.571 384.296 268.146 372.517 268.146 361.388C268.146 350.263 261.571 338.488 253.104 334.229C248.758 332.05 245.946 330.984 240.138 330.463C238.617 330.325 236.884 330.225 234.876 330.154H131.113C103 330.133 99.4502 329.654 90.1002 324.971C79.7753 319.779 71.7546 305.417 71.7544 291.851C71.7544 278.284 79.7751 263.925 90.1002 258.737C99.65 253.946 102.705 253.55 132.892 253.55C133.1 253.549 234.335 253.054 234.738 252.821C242.504 252.471 245.104 251.559 249.792 249.209C257.4 245.388 263.313 234.8 263.313 224.796C263.313 214.8 257.4 204.213 249.792 200.384C245.013 197.988 242.296 197.087 234.175 196.754C233.95 196.616 233.75 196.446 233.521 196.312H120.142C99.763 196.312 90.9043 196.133 84.4918 194.675C80.1043 194.221 75.7831 193.588 71.5748 192.684C58.0166 190.538 46.7125 185.658 37.3834 178.733C-13.5166 137.704 -2.3703 57.3792 12.5005 0Z" fill="white"/>
</svg>
