<svg width="1024" height="1024" viewBox="0 0 1024 1024" fill="none" xmlns="http://www.w3.org/2000/svg">
<rect width="1024" height="1024" fill="white"/>
<path d="M633.586 430.999V427.399H633.946C642.586 427.399 649.546 424.759 654.826 419.479C660.106 414.199 662.746 407.239 662.746 398.599V280.519C662.746 271.399 660.826 264.319 656.986 259.279C653.386 254.239 645.586 251.719 633.586 251.719V248.119H669.226C679.066 248.119 686.626 247.639 691.906 246.679C697.426 245.719 701.506 244.519 704.146 243.079C706.786 241.399 708.706 239.719 709.906 238.039H713.506L713.866 284.839C720.106 272.359 729.586 262.279 742.306 254.599C755.026 246.919 768.466 243.079 782.626 243.079C796.306 243.079 807.706 246.919 816.826 254.599C825.946 262.279 831.826 272.599 834.466 285.559C841.186 272.599 850.786 262.279 863.266 254.599C875.986 246.919 889.666 243.079 904.306 243.079C920.386 243.079 933.226 248.359 942.826 258.919C952.666 269.479 957.586 283.399 957.586 300.679V398.599C957.586 407.239 960.226 414.199 965.506 419.479C970.786 424.759 977.746 427.399 986.386 427.399H986.746V430.999H876.946V427.399H877.306C885.946 427.399 892.906 424.759 898.186 419.479C903.466 414.199 906.106 407.239 906.106 398.599V297.079C906.106 285.079 903.706 275.479 898.906 268.279C894.106 261.079 887.866 257.479 880.186 257.479C872.746 257.479 864.946 260.839 856.786 267.559C848.626 274.039 841.546 282.559 835.546 293.119C835.786 293.599 835.906 294.199 835.906 294.919C835.906 295.639 835.906 296.239 835.906 296.719V398.599C835.906 407.239 838.546 414.199 843.826 419.479C849.106 424.759 856.066 427.399 864.706 427.399H865.066V430.999H755.266V427.399H755.626C764.266 427.399 771.226 424.759 776.506 419.479C781.786 414.199 784.426 407.239 784.426 398.599V297.079C784.426 285.079 782.026 275.479 777.226 268.279C772.666 261.079 766.546 257.479 758.866 257.479C751.426 257.479 743.626 260.719 735.466 267.199C727.546 273.439 720.586 281.959 714.586 292.759V398.599C714.586 407.239 717.226 414.199 722.506 419.479C727.786 424.759 734.746 427.399 743.386 427.399H743.746V430.999H633.586Z" fill="black"/>
<path d="M514.42 436.041C499.78 436.041 488.02 432.081 479.14 424.161C470.26 416.241 465.82 405.801 465.82 392.841C465.82 387.321 466.78 382.161 468.7 377.361C470.62 372.321 474.22 367.401 479.5 362.601C485.02 357.801 492.58 352.881 502.18 347.841C511.78 342.561 524.5 337.041 540.34 331.281L573.82 319.041V292.041C573.82 278.361 571.66 267.561 567.34 259.641C563.02 251.481 557.02 247.401 549.34 247.401C540.22 247.641 532.42 253.641 525.94 265.401C519.7 277.161 515.5 293.481 513.34 314.361L474.46 292.041C478.54 282.201 484.78 273.561 493.18 266.121C501.58 258.681 511.18 252.921 521.98 248.841C533.02 244.761 544.54 242.721 556.54 242.721C576.94 242.721 593.5 248.481 606.22 260.001C619.18 271.281 625.66 286.761 625.66 306.441V393.201C625.66 407.121 630.34 414.081 639.7 414.081C645.22 414.081 650.62 411.081 655.9 405.081L658.78 407.601C652.54 416.001 644.98 422.841 636.1 428.121C627.22 433.401 618.58 436.041 610.18 436.041C601.06 436.041 593.14 432.921 586.42 426.681C579.94 420.441 575.86 412.161 574.18 401.841C562.42 413.841 552.1 422.601 543.22 428.121C534.58 433.401 524.98 436.041 514.42 436.041ZM541.42 413.721C546.7 413.721 551.74 412.401 556.54 409.761C561.58 407.121 567.22 402.801 573.46 396.801L573.82 323.721L559.42 329.121C547.18 333.681 537.82 338.361 531.34 343.161C524.86 347.721 520.3 352.881 517.66 358.641C515.26 364.401 514.06 371.001 514.06 378.441C514.06 388.761 516.58 397.281 521.62 404.001C526.9 410.481 533.5 413.721 541.42 413.721Z" fill="black"/>
<path d="M402.567 444.68L402.207 393.56C396.447 406.04 387.807 416.36 376.287 424.52C364.767 432.44 352.407 436.4 339.207 436.4C326.247 436.4 314.607 432.32 304.287 424.16C293.967 416 285.807 404.84 279.807 390.68C273.807 376.28 270.807 360.08 270.807 342.08C270.807 321.92 274.527 304.4 281.967 289.52C289.647 274.64 300.207 263.24 313.647 255.32C327.087 247.16 342.567 243.08 360.087 243.08C369.927 243.08 377.967 244.64 384.207 247.76C390.447 250.64 396.087 255.68 401.127 262.88V193.4C401.127 184.76 398.367 177.8 392.847 172.52C387.567 167.24 380.607 164.6 371.967 164.6V161H408.687C420.687 161 429.807 159.8 436.047 157.4C442.287 155 446.727 151.64 449.367 147.32H452.967V398.6C452.967 407.24 455.607 414.2 460.887 419.48C466.167 424.76 473.247 427.4 482.127 427.4V431H445.407C434.847 431 426.447 432.08 420.207 434.24C414.207 436.4 409.527 439.88 406.167 444.68H402.567ZM359.007 422C364.527 422 370.047 420.32 375.567 416.96C381.327 413.36 386.487 408.68 391.047 402.92C395.607 397.16 398.967 391.04 401.127 384.56V296.72C399.927 282.32 396.327 270.8 390.327 262.16C384.567 253.52 377.007 249.2 367.647 249.2C355.167 249.2 345.447 257.12 338.487 272.96C331.767 288.8 328.407 312.2 328.407 343.16C328.407 395.72 338.607 422 359.007 422Z" fill="black"/>
<path d="M33.4268 431V427.4C37.9868 426.92 42.5468 424.76 47.1068 420.92C51.9068 416.84 56.3468 411.8 60.4268 405.8C64.5068 399.8 67.6268 393.92 69.7868 388.16L164.827 155.6H168.067L261.667 388.16C272.227 414.32 283.987 427.4 296.947 427.4H298.027V431H182.827V427.4H184.267C195.067 427.4 202.267 424.16 205.867 417.68C209.707 410.96 209.227 401.72 204.427 389.96L182.827 336.32H96.0668L75.9068 386.36C71.5868 396.68 72.0668 406.04 77.3468 414.44C82.8668 422.6 91.6268 426.92 103.627 427.4V431H33.4268ZM97.8668 331.64H181.027L139.987 227.96L97.8668 331.64Z" fill="black"/>
<path d="M769.194 868.04C762.954 868.04 758.274 867.8 755.154 867.32C752.034 866.84 749.034 866.24 746.154 865.52C743.514 864.8 739.914 864.2 735.354 863.72C730.794 863.24 723.834 863 714.474 863L705.834 795.32H710.514C714.354 817.88 721.554 834.92 732.114 846.44C742.674 857.72 754.194 863.36 766.674 863.36C778.914 863.36 788.154 860.84 794.394 855.8C800.874 850.76 804.114 843.92 804.114 835.28C804.114 829.76 802.674 824.96 799.794 820.88C797.154 816.56 792.474 812.24 785.754 807.92C779.034 803.36 769.914 797.96 758.394 791.72L747.954 785.96C734.754 778.52 724.914 769.88 718.434 760.04C712.194 749.96 709.074 739.16 709.074 727.64C709.074 711.32 714.954 698.48 726.714 689.12C738.714 679.76 754.674 675.08 774.594 675.08C779.634 675.08 783.714 675.32 786.834 675.8C789.954 676.28 792.954 676.88 795.834 677.6C798.714 678.32 802.314 678.92 806.634 679.4C810.954 679.88 816.714 680.12 823.914 680.12L828.954 738.08H824.634C823.194 726.8 819.954 716.84 814.914 708.2C810.114 699.32 804.354 692.48 797.634 687.68C790.914 682.64 784.074 680.12 777.114 680.12C767.994 680.12 760.674 682.52 755.154 687.32C749.874 692.12 747.234 698.84 747.234 707.48C747.234 713.96 749.274 719.96 753.354 725.48C757.674 730.76 765.834 736.52 777.834 742.76L788.634 748.16C805.434 756.8 817.674 765.8 825.354 775.16C833.034 784.52 836.874 796.52 836.874 811.16C836.874 848.6 814.314 867.56 769.194 868.04Z" fill="black"/>
<path d="M622.509 867.32C605.949 867.32 591.189 863.24 578.229 855.08C565.509 846.92 555.549 835.64 548.349 821.24C541.149 806.6 537.549 789.92 537.549 771.2C537.549 752 541.509 735.2 549.429 720.8C557.349 706.4 568.149 695.24 581.829 687.32C595.749 679.16 611.469 675.08 628.989 675.08C643.629 675.08 656.589 677.96 667.869 683.72C679.389 689.48 688.509 697.64 695.229 708.2C702.189 718.52 706.149 730.52 707.109 744.2L707.469 749.6H586.509V751.4C586.509 776.84 592.149 797.24 603.429 812.6C614.709 827.72 629.829 835.28 648.789 835.28C660.309 835.28 671.229 832.52 681.549 827C692.109 821.24 700.629 813.56 707.109 803.96L710.349 805.04C706.269 817.28 699.909 828.08 691.269 837.44C682.629 846.8 672.429 854.12 660.669 859.4C648.909 864.68 636.189 867.32 622.509 867.32ZM586.869 744.2H659.949C659.949 725.24 656.829 709.88 650.589 698.12C644.589 686.36 636.069 680.48 625.029 680.48C614.469 680.48 605.709 686.24 598.749 697.76C591.789 709.28 587.829 724.76 586.869 744.2Z" fill="black"/>
<path d="M341.871 863V859.4H342.231C350.871 859.4 357.831 856.76 363.111 851.48C368.391 846.2 371.031 839.24 371.031 830.6V625.4C371.031 616.76 368.271 609.8 362.751 604.52C357.471 599.24 350.511 596.6 341.871 596.6V593H378.591C390.831 593 400.191 591.68 406.671 589.04C412.671 586.4 416.871 583.16 419.271 579.32H422.871V768.68L484.071 717.2C493.911 709.04 499.791 701.72 501.711 695.24C503.151 689.24 501.591 685.76 497.031 684.8L492.351 683.72V680.12H545.991V683.72L542.391 684.44C536.631 685.4 530.631 687.8 524.391 691.64C518.391 695.48 509.631 702.2 498.111 711.8L473.271 732.68L544.911 842.84C549.471 848.84 553.431 853.16 556.791 855.8C560.151 858.2 563.871 859.4 567.951 859.4V863H472.911V859.4C478.911 859.4 482.871 858.92 484.791 857.96C486.951 857.24 488.031 855.68 488.031 853.28C488.031 851.12 487.191 848.36 485.511 845C484.551 843.08 483.351 840.92 481.911 838.52C480.711 835.88 479.151 833 477.231 829.88L436.191 764L422.871 775.52V830.6C422.871 839.24 425.511 846.2 430.791 851.48C436.071 856.76 443.031 859.4 451.671 859.4H452.031V863H341.871Z" fill="black"/>
<path d="M255.516 863V859.4H255.876C264.516 859.4 271.476 856.76 276.756 851.48C282.036 846.2 284.676 839.24 284.676 830.6V712.52C284.676 703.4 282.756 696.32 278.916 691.28C275.316 686.24 267.516 683.72 255.516 683.72V680.12H292.236C304.476 680.12 313.836 678.8 320.316 676.16C326.316 673.52 330.516 670.28 332.916 666.44H336.516V830.6C336.516 839.24 339.156 846.2 344.436 851.48C349.716 856.76 356.676 859.4 365.316 859.4H365.676V863H255.516ZM310.236 643.76C301.596 643.76 294.396 641 288.636 635.48C283.116 629.72 280.356 622.52 280.356 613.88C280.356 605.24 283.116 598.16 288.636 592.64C294.396 586.88 301.596 584 310.236 584C318.636 584 325.596 586.88 331.116 592.64C336.876 598.4 339.756 605.48 339.756 613.88C339.756 622.28 336.876 629.36 331.116 635.12C325.596 640.88 318.636 643.76 310.236 643.76Z" fill="black"/>
<path d="M42.4805 863V859.4H42.8405C51.2405 859.4 58.0805 857 63.3605 852.2C68.8805 847.16 71.6405 840.68 71.6405 832.76V623.24C71.1605 615.08 68.2805 608.6 63.0005 603.8C57.9605 599 51.2405 596.6 42.8405 596.6H42.4805V593H149.4C168.84 593 185.64 595.52 199.8 600.56C214.2 605.6 225.36 612.68 233.28 621.8C241.2 630.68 245.16 641.24 245.16 653.48C245.16 667.4 239.16 679.4 227.16 689.48C215.4 699.56 199.92 705.8 180.72 708.2C198.48 709.16 213.96 712.76 227.16 719C240.6 725 251.04 733.16 258.48 743.48C266.16 753.8 270 765.8 270 779.48C270 795.8 265.2 810.32 255.6 823.04C246.24 835.52 232.92 845.36 215.64 852.56C198.36 859.52 177.96 863 154.44 863H42.4805ZM127.08 705.68H149.4C161.64 705.68 171.48 700.88 178.92 691.28C186.6 681.44 190.44 668.36 190.44 652.04C190.44 635.48 186.6 622.28 178.92 612.44C171.48 602.6 161.64 597.68 149.4 597.68H127.08V705.68ZM154.44 858.32C172.2 858.32 186.24 851.6 196.56 838.16C207.12 824.72 212.4 806.6 212.4 783.8C212.4 761.96 206.64 744.44 195.12 731.24C183.84 717.8 168.6 711.08 149.4 711.08H127.08V832.76C127.08 849.8 136.2 858.32 154.44 858.32Z" fill="black"/>
</svg>
