<?xml version="1.0" standalone="no"?>
<!DOCTYPE svg PUBLIC "-//W3C//DTD SVG 20010904//EN"
 "http://www.w3.org/TR/2001/REC-SVG-20010904/DTD/svg10.dtd">
<svg version="1.0" xmlns="http://www.w3.org/2000/svg"
 width="512.000000pt" height="512.000000pt" viewBox="0 0 512.000000 512.000000"
 preserveAspectRatio="xMidYMid meet">
<metadata>
Created for Adam Bikes pinned tab
</metadata>
<g transform="translate(0.000000,512.000000) scale(0.100000,-0.100000)"
fill="#000000" stroke="none">
<path d="M2350 4890 c-19 -5 -53 -21 -75 -35 -85 -55 -135 -155 -135 -270 0
-85 25 -155 75 -210 l35 -40 0 -180 0 -180 -37 -3 c-21 -2 -65 -16 -98 -31
-33 -15 -82 -36 -110 -46 -27 -10 -68 -30 -90 -44 -22 -14 -49 -26 -60 -26
-11 0 -20 -4 -20 -10 0 -5 -9 -10 -20 -10 -25 0 -100 -75 -100 -100 0 -11 -4
-20 -10 -20 -5 0 -10 -9 -10 -20 0 -11 -12 -38 -26 -60 -14 -22 -34 -63 -44
-90 -10 -28 -31 -77 -46 -110 -15 -33 -29 -77 -31 -98 l-3 -37 -180 0 -180 0
-40 35 c-55 50 -125 75 -210 75 -115 0 -215 -50 -270 -135 -35 -54 -40 -72
-40 -145 0 -73 5 -91 40 -145 55 -85 155 -135 270 -135 85 0 155 25 210 75
l40 35 180 0 180 0 3 -37 c2 -21 16 -65 31 -98 15 -33 36 -82 46 -110 10 -27
30 -68 44 -90 14 -22 26 -49 26 -60 0 -11 4 -20 10 -20 5 0 10 -9 10 -20 0
-25 75 -100 100 -100 11 0 20 -4 20 -10 0 -5 9 -10 20 -10 11 0 38 -12 60
-26 22 -14 63 -34 90 -44 28 -10 77 -31 110 -46 33 -15 77 -29 98 -31 l37 -3
0 -180 0 -180 -35 -40 c-50 -55 -75 -125 -75 -210 0 -115 50 -215 135 -270
54 -35 72 -40 145 -40 73 0 91 5 145 40 85 55 135 155 135 270 0 85 -25 155
-75 210 l-35 40 0 180 0 180 37 3 c21 2 65 16 98 31 33 15 82 36 110 46 27
10 68 30 90 44 22 14 49 26 60 26 11 0 20 4 20 10 0 5 9 10 20 10 25 0 100
75 100 100 0 11 4 20 10 20 5 0 10 9 10 20 0 11 12 38 26 60 14 22 34 63 44
90 10 28 31 77 46 110 15 33 29 77 31 98 l3 37 180 0 180 0 40 -35 c55 -50
125 -75 210 -75 115 0 215 50 270 135 35 54 40 72 40 145 0 73 -5 91 -40 145
-55 85 -155 135 -270 135 -85 0 -155 -25 -210 -75 l-40 -35 -180 0 -180 0 -3
37 c-2 21 -16 65 -31 98 -15 33 -36 82 -46 110 -10 27 -30 68 -44 90 -14 22
-26 49 -26 60 0 11 -4 20 -10 20 -5 0 -10 9 -10 20 0 25 -75 100 -100 100
-11 0 -20 4 -20 10 0 5 -9 10 -20 10 -11 0 -38 12 -60 26 -22 14 -63 34 -90
44 -28 10 -77 31 -110 46 -33 15 -77 29 -98 31 l-37 3 0 180 0 180 35 40 c50
55 75 125 75 210 0 115 -50 215 -135 270 -44 28 -63 35 -120 37 -38 2 -81 -1
-95 -7z"/>
</g>
</svg> 